<?xml version="1.0" standalone="no"?>
<!DOCTYPE svg PUBLIC "-//W3C//DTD SVG 20010904//EN"
 "http://www.w3.org/TR/2001/REC-SVG-20010904/DTD/svg10.dtd">
<svg version="1.0" xmlns="http://www.w3.org/2000/svg"
 width="1080.000000pt" height="1080.000000pt" viewBox="0 0 1080.000000 1080.000000"
 preserveAspectRatio="xMidYMid meet">

<g transform="translate(0.000000,1080.000000) scale(0.100000,-0.100000)"
fill="#000000" stroke="none">
<path d="M10093 6798 c-36 -35 -276 -279 -534 -544 -409 -419 -523 -543 -899
-980 -344 -399 -430 -504 -426 -522 3 -18 -16 -41 -95 -114 -54 -50 -102 -103
-108 -117 -5 -14 -20 -66 -32 -116 -22 -93 -59 -176 -130 -291 -67 -111 -47
-130 85 -80 39 15 124 36 190 48 104 17 148 19 316 15 205 -6 236 -11 530 -80
231 -55 361 -71 570 -71 198 -1 281 9 415 51 301 93 613 358 741 628 66 139
78 197 78 360 -1 124 -4 149 -27 220 -63 190 -199 322 -402 391 -154 52 -339
45 -687 -25 -128 -26 -144 -32 -162 -57 -12 -16 -51 -64 -88 -108 -37 -44 -66
-81 -65 -82 2 -2 108 22 236 52 500 117 642 122 823 27 126 -66 201 -173 233
-332 57 -277 -101 -589 -413 -820 -116 -85 -190 -124 -312 -165 -260 -87 -557
-86 -995 4 -197 41 -286 50 -470 50 -167 0 -297 -15 -425 -49 -41 -11 -76 -18
-78 -16 -9 9 105 81 223 140 72 36 140 73 152 83 12 9 44 53 70 97 27 44 56
90 63 102 10 15 21 21 35 17 27 -7 20 -14 496 542 338 393 460 544 744 922
187 248 343 451 347 452 4 0 10 -15 13 -34 5 -26 0 -47 -24 -94 -82 -162 -235
-399 -275 -425 -20 -13 -26 -26 -26 -52 0 -37 28 -75 55 -75 30 0 66 24 71 49
6 31 0 19 97 171 106 165 194 327 202 373 10 50 -1 98 -29 139 l-23 35 73 98
c64 85 74 104 74 139 -1 63 -45 106 -110 106 -25 0 -45 -13 -97 -62z m82 -395
c8 -43 -5 -83 -62 -186 -52 -94 -201 -335 -212 -341 -4 -3 -13 -1 -20 3 -9 6
8 39 62 122 41 63 102 164 135 224 66 118 76 163 47 215 -9 18 -10 29 -3 38
14 16 43 -25 53 -75z m-480 -240 c-44 -68 -237 -341 -264 -373 l-29 -35 -37
35 -37 35 189 182 c103 100 190 183 192 183 2 0 -5 -12 -14 -27z m173 -325 c7
-7 8 -17 1 -30 -12 -22 -32 -23 -49 -3 -23 28 21 60 48 33z m-537 -90 c32 -29
59 -57 59 -63 0 -7 -11 -22 -25 -35 l-25 -23 -27 24 c-16 13 -45 39 -65 58
l-37 34 22 28 c11 16 25 29 30 29 4 0 35 -24 68 -52z m-93 -105 c71 -61 100
-103 72 -103 -17 0 -180 142 -180 157 0 28 34 11 108 -54z m-324 -415 c-182
-266 -287 -408 -302 -408 -4 0 -27 18 -52 40 l-45 39 65 66 c85 87 419 405
426 405 3 0 -38 -64 -92 -142z m-400 -433 c52 -44 97 -86 100 -93 7 -16 -60
-102 -79 -102 -20 0 -215 170 -215 187 0 24 63 94 81 91 10 -2 60 -39 113 -83z
m-164 -160 c0 -18 -102 -126 -115 -121 -17 6 -47 -27 -40 -45 5 -14 -113 -165
-122 -156 -5 5 33 161 44 180 4 8 44 47 88 87 44 40 84 79 88 86 7 12 12 11
32 -3 14 -10 24 -22 25 -28z m53 -39 c9 -7 17 -16 17 -20 0 -5 -67 -108 -126
-194 -14 -20 -214 -130 -214 -117 0 3 30 42 68 85 45 54 74 79 89 80 23 0 47
32 40 53 -4 12 89 127 101 127 4 0 15 -7 25 -14z m-40 -206 c-15 -29 -39 -60
-53 -69 -31 -21 -130 -64 -136 -58 -2 2 28 21 67 43 53 29 80 51 107 91 20 28
38 50 40 48 2 -1 -9 -26 -25 -55z"/>
<path d="M8635 6753 c-350 -63 -692 -298 -872 -598 -43 -73 -58 -85 -98 -85
-46 0 -142 -27 -212 -60 -80 -37 -142 -95 -178 -167 -26 -51 -29 -69 -29 -148
0 -70 4 -100 20 -135 107 -230 456 -364 979 -377 l210 -5 83 99 83 98 -258 6
c-271 7 -368 19 -543 65 -132 34 -268 102 -314 156 -65 75 -43 159 53 203 23
10 44 15 47 12 4 -3 2 -26 -4 -49 -6 -24 -8 -46 -3 -51 13 -13 194 -55 294
-67 152 -19 375 -9 522 25 361 82 659 259 1057 628 59 55 128 123 153 153 l46
54 -77 50 c-150 98 -316 164 -490 194 -111 20 -359 19 -469 -1z m163 -475 l-3
-333 -95 -33 c-121 -43 -299 -89 -379 -98 l-62 -7 7 39 c11 62 52 199 84 283
75 193 227 384 359 449 35 18 70 32 78 32 11 0 13 -58 11 -332z m238 303 c36
-17 91 -56 133 -96 74 -71 166 -197 158 -218 -9 -24 -342 -247 -369 -247 -4 0
-8 133 -8 295 0 229 3 295 13 295 6 0 40 -13 73 -29z m-692 -138 c-114 -166
-173 -319 -239 -620 -5 -22 -10 -23 -83 -22 -76 0 -226 20 -237 31 -10 10 68
179 116 254 100 154 229 278 390 374 45 28 86 50 91 50 4 0 -13 -30 -38 -67z
m1104 25 l74 -43 -32 -28 -32 -29 -16 24 c-8 13 -30 44 -49 71 -18 26 -30 47
-26 47 4 0 40 -19 81 -42z"/>
<path d="M275 5977 c-185 -62 -287 -225 -273 -440 8 -125 61 -211 163 -265 46
-25 60 -27 165 -27 104 0 121 3 172 27 61 28 83 56 74 94 -11 43 -41 49 -106
20 -95 -43 -215 -34 -272 21 -100 95 -60 349 66 427 71 44 161 48 244 11 71
-32 103 -30 116 6 17 48 1 75 -61 106 -49 23 -72 28 -153 30 -59 2 -110 -2
-135 -10z"/>
<path d="M963 5981 c-114 -29 -209 -122 -255 -249 -15 -42 -21 -84 -22 -162
-1 -94 2 -111 25 -160 31 -67 79 -116 139 -144 37 -17 65 -21 155 -21 98 0
116 3 167 27 144 67 228 235 215 429 -6 91 -30 152 -82 204 -58 57 -114 78
-220 81 -49 2 -104 -1 -122 -5z m164 -116 c91 -27 130 -101 120 -230 -3 -38
-15 -95 -26 -125 -58 -154 -241 -210 -345 -105 -101 100 -52 374 79 443 63 33
105 37 172 17z"/>
<path d="M1590 5970 c-11 -11 -20 -23 -20 -27 0 -5 -14 -91 -30 -193 -38 -235
-39 -318 -5 -387 46 -92 126 -127 274 -121 79 3 105 9 147 30 78 41 135 116
157 208 14 56 67 413 67 448 0 21 -5 43 -12 50 -17 17 -74 15 -92 -3 -20 -20
-20 -22 -56 -250 -38 -241 -50 -284 -95 -324 -85 -74 -228 -63 -268 22 -23 48
-21 82 13 297 36 221 37 246 11 260 -31 16 -69 12 -91 -10z"/>
<path d="M2366 5977 c-15 -11 -29 -76 -72 -348 -30 -184 -54 -339 -54 -346 0
-20 31 -43 59 -43 56 0 59 8 101 268 21 134 40 246 43 248 2 3 68 -105 147
-238 78 -134 151 -251 162 -260 11 -10 33 -18 48 -18 15 0 34 8 42 18 10 11
33 129 67 347 28 182 51 335 51 342 0 21 -31 43 -59 43 -52 0 -60 -22 -100
-274 -21 -130 -40 -238 -43 -241 -3 -3 -71 106 -151 242 -80 137 -151 254
-158 261 -17 16 -60 15 -83 -1z"/>
<path d="M4407 5972 c-12 -13 -32 -109 -67 -330 -54 -333 -56 -362 -38 -380 9
-9 73 -12 228 -12 197 0 218 2 233 18 20 22 22 63 5 80 -8 8 -62 12 -176 12
l-164 0 5 23 c3 12 25 145 48 295 41 263 41 273 24 292 -23 25 -76 26 -98 2z"/>
<path d="M5068 5973 c-97 -32 -167 -121 -168 -212 0 -97 67 -169 179 -192 31
-6 84 -20 119 -31 53 -16 65 -24 79 -53 23 -48 5 -87 -54 -116 -60 -29 -169
-23 -262 15 -75 30 -84 31 -105 10 -22 -21 -20 -67 3 -88 62 -56 272 -85 382
-52 114 33 178 108 179 210 0 61 -29 114 -81 148 -22 14 -88 38 -148 53 -63
15 -118 35 -130 46 -46 43 -33 107 29 143 54 32 166 29 247 -8 39 -18 69 -26
82 -21 23 7 36 43 26 74 -22 70 -252 116 -377 74z"/>
<path d="M6447 5979 c-107 -25 -218 -122 -258 -227 -33 -87 -38 -248 -10 -323
26 -67 74 -119 144 -157 49 -25 60 -27 182 -27 144 0 207 13 230 49 22 33 62
303 48 324 -8 14 -30 18 -119 20 -129 3 -150 -1 -157 -30 -12 -45 7 -58 88
-58 85 0 81 7 63 -101 -13 -81 -19 -86 -106 -95 -128 -14 -232 50 -248 151
-25 169 48 321 172 355 63 18 173 8 219 -19 48 -28 81 -27 101 3 34 53 -6 100
-109 131 -55 16 -179 18 -240 4z"/>
<path d="M3058 5968 c-23 -19 -28 -54 -11 -77 13 -19 24 -21 124 -21 102 0
109 -1 109 -20 0 -11 -18 -133 -40 -271 -43 -271 -46 -309 -28 -327 29 -29
118 0 118 38 0 6 20 137 45 292 25 155 45 283 45 285 0 2 54 3 119 3 113 0
121 1 135 22 19 27 21 59 4 76 -18 18 -598 17 -620 0z"/>
<path d="M3785 5960 c-15 -16 -30 -90 -66 -318 -51 -319 -56 -361 -37 -380 9
-9 75 -12 234 -12 245 0 248 1 242 62 l-3 33 -165 3 c-91 1 -170 4 -176 6 -7
3 -6 36 6 108 l16 103 167 5 c183 5 190 8 185 65 l-3 30 -162 3 c-188 3 -172
-10 -151 125 l11 77 161 0 c185 0 209 7 214 59 2 20 -2 37 -10 42 -7 5 -110 9
-229 9 -205 0 -217 -1 -234 -20z"/>
<path d="M5630 5960 c-11 -11 -20 -24 -20 -30 0 -5 -20 -137 -45 -293 -48
-301 -52 -356 -33 -375 9 -9 74 -12 229 -12 235 0 249 3 249 54 0 42 -15 46
-193 46 l-168 0 6 43 c4 23 12 71 18 107 l12 65 160 3 c171 3 195 10 195 57 0
39 -20 44 -181 47 l-154 3 3 30 c1 17 7 60 13 97 l11 67 175 3 c159 3 176 5
189 22 17 24 18 58 2 74 -9 9 -74 12 -230 12 -205 0 -219 -1 -238 -20z"/>
<path d="M10050 5865 c-29 -45 -44 -80 -48 -112 l-5 -46 39 6 c21 4 58 7 82 7
41 0 42 1 36 28 -13 61 -48 173 -54 177 -4 3 -27 -24 -50 -60z"/>
<path d="M10068 5383 c-36 -4 -37 -6 -43 -51 -52 -379 -286 -720 -608 -883
l-57 -29 46 67 c137 200 224 457 259 765 l6 56 -78 -20 -78 -19 -17 -107 c-19
-118 -52 -242 -98 -361 -90 -232 -267 -430 -427 -476 l-23 -6 -2 262 -3 262
-72 -83 -73 -83 0 -179 c0 -98 -2 -178 -5 -178 -18 0 -100 39 -148 72 -86 58
-92 55 -192 -100 l-34 -53 27 -10 c126 -49 307 -73 487 -66 261 11 459 77 682
226 300 201 523 572 558 929 l8 72 -39 -2 c-22 -1 -56 -3 -76 -5z"/>
<path d="M7611 5131 c54 -198 155 -387 274 -520 l49 -54 16 24 c8 13 30 41 49
61 l33 38 -34 38 c-81 90 -177 259 -214 374 l-18 58 -82 25 c-45 14 -84 25
-87 25 -3 0 3 -31 14 -69z"/>
<path d="M8110 5089 c0 -27 53 -229 60 -229 4 0 32 28 63 63 l55 62 -11 53
c-10 46 -14 52 -36 52 -15 0 -50 3 -78 6 -42 5 -53 4 -53 -7z"/>
<path d="M5413 4950 c-37 -56 -38 -60 -19 -60 13 0 86 86 86 102 0 4 -8 8 -17
8 -10 0 -32 -22 -50 -50z"/>
<path d="M3711 4958 c-15 -41 -53 -307 -46 -327 8 -25 60 -44 86 -30 27 14 23
26 -11 33 -37 7 -38 18 -9 192 11 70 18 133 15 140 -8 21 -26 17 -35 -8z"/>
<path d="M815 4958 c-4 -15 -55 -334 -55 -349 0 -6 10 -9 22 -7 19 2 24 12 30
53 5 28 10 64 13 82 l6 32 87 3 c69 2 87 6 87 18 0 12 -17 16 -84 18 l-83 3 6
47 c13 85 7 81 108 84 62 2 93 7 96 16 3 9 -24 12 -112 12 -85 0 -118 -3 -121
-12z"/>
<path d="M1217 4963 c-4 -3 -7 -15 -7 -25 0 -29 44 -20 48 10 3 16 -2 22 -16
22 -10 0 -22 -3 -25 -7z"/>
<path d="M3296 4943 c-14 -73 -46 -287 -46 -313 l0 -30 115 0 c108 0 115 1
115 20 0 19 -7 20 -96 20 -86 0 -95 2 -91 18 3 9 8 38 12 64 l6 47 92 3 c74 2
92 6 92 18 0 12 -18 16 -89 18 l-88 3 6 37 c18 101 6 91 113 94 66 2 98 7 101
16 3 9 -25 12 -116 12 l-120 0 -6 -27z"/>
<path d="M6096 4954 c-4 -10 -2 -22 3 -27 15 -15 46 -3 46 18 0 26 -40 33 -49
9z"/>
<path d="M4716 4925 c-3 -9 -6 -27 -6 -40 0 -18 -6 -24 -27 -27 -34 -4 -38
-32 -5 -36 16 -2 22 -8 18 -18 -10 -26 -19 -142 -12 -167 11 -46 116 -60 116
-16 0 15 -5 18 -22 14 -13 -3 -32 0 -42 8 -18 13 -18 19 -6 95 l12 81 42 3
c55 4 58 32 3 36 -37 3 -38 4 -35 40 2 27 -1 37 -13 40 -9 1 -19 -4 -23 -13z"/>
<path d="M1196 4833 c-7 -34 -36 -215 -36 -225 0 -5 9 -8 20 -8 22 0 22 2 45
135 19 116 19 125 -4 125 -13 0 -21 -9 -25 -27z"/>
<path d="M1426 4838 c-8 -38 -36 -215 -36 -227 0 -6 9 -11 20 -11 21 0 22 4
40 104 10 60 31 104 53 111 7 2 24 6 40 9 15 4 27 13 27 21 0 20 -49 20 -77 0
-19 -13 -22 -13 -27 0 -8 23 -35 18 -40 -7z"/>
<path d="M1725 4848 c-6 -22 -35 -204 -35 -227 0 -14 6 -21 19 -21 20 0 23 8
37 100 14 96 57 145 103 120 29 -15 31 -34 16 -122 -15 -82 -10 -106 17 -95 9
3 19 35 26 82 14 88 23 109 58 131 20 14 29 15 51 5 28 -13 28 -8 7 -168 -6
-49 -5 -53 14 -53 17 0 22 10 31 68 18 117 17 154 -5 176 -22 23 -86 20 -117
-4 l-26 -21 -21 21 c-24 24 -77 27 -106 5 -25 -19 -34 -19 -34 0 0 18 -29 20
-35 3z"/>
<path d="M2303 4848 c-24 -11 -32 -38 -12 -38 7 0 29 5 50 12 54 16 89 0 89
-41 0 -28 -1 -29 -64 -33 -85 -5 -116 -26 -116 -78 0 -32 5 -43 26 -57 30 -20
88 -21 110 -2 13 10 17 10 24 -1 17 -27 38 -1 49 63 26 149 9 187 -81 186 -29
0 -63 -5 -75 -11z m117 -148 c0 -31 -44 -70 -78 -70 -37 0 -56 22 -48 54 7 27
21 33 84 35 36 1 42 -2 42 -19z"/>
<path d="M2675 4835 c-49 -48 -24 -106 54 -125 54 -13 73 -38 50 -67 -13 -15
-72 -14 -126 2 -17 6 -23 3 -23 -8 0 -28 51 -43 133 -38 38 2 67 34 67 76 0
40 -23 59 -82 69 -51 9 -70 42 -38 68 26 21 39 22 91 6 48 -14 62 -3 30 23
-36 30 -124 27 -156 -6z"/>
<path d="M3976 4839 c-39 -30 -56 -71 -56 -132 0 -61 22 -90 79 -107 54 -15
131 6 131 37 0 11 -6 14 -22 9 -63 -19 -93 -18 -120 4 -17 13 -28 31 -28 46 0
24 1 24 95 24 l95 0 0 45 c0 65 -31 95 -98 95 -35 0 -57 -6 -76 -21z m117 -21
c9 -7 19 -25 23 -40 l6 -28 -81 0 -82 0 16 30 c8 16 23 34 32 39 25 14 66 13
86 -1z"/>
<path d="M4372 4848 c-31 -16 -61 -67 -68 -119 -11 -95 62 -156 151 -127 25 8
41 20 43 32 3 16 0 18 -19 11 -60 -18 -87 -17 -109 5 -19 19 -22 30 -18 71 8
81 58 119 129 98 48 -15 62 -4 30 22 -26 21 -101 25 -139 7z"/>
<path d="M4986 4852 c-7 -11 -36 -196 -36 -228 0 -19 4 -25 18 -22 13 2 21 23
33 83 19 98 32 123 67 131 54 12 62 16 62 30 0 19 -43 18 -80 -1 -27 -14 -30
-14 -30 0 0 16 -25 21 -34 7z"/>
<path d="M5304 4841 c-61 -37 -85 -151 -44 -204 26 -32 77 -48 125 -37 46 10
64 26 86 75 21 46 23 79 8 124 -20 58 -112 80 -175 42z m124 -39 c9 -11 12
-35 9 -71 -3 -44 -9 -59 -31 -78 -33 -28 -66 -29 -97 -4 -45 36 -23 148 34
171 29 12 69 3 85 -18z"/>
<path d="M5675 4838 c-7 -32 -35 -210 -35 -225 0 -7 9 -13 20 -13 11 0 20 1
20 3 0 1 7 40 15 86 16 90 36 124 81 135 13 4 34 1 46 -5 22 -12 22 -28 2
-171 -6 -44 -5 -48 14 -48 16 0 22 8 26 33 3 17 10 60 16 93 11 64 7 87 -18
117 -19 21 -89 23 -119 2 -19 -13 -22 -13 -27 0 -8 23 -35 18 -41 -7z"/>
<path d="M6085 4848 c-7 -20 -35 -200 -35 -225 0 -16 6 -23 20 -23 11 0 20 3
20 8 0 4 7 48 15 97 19 118 19 155 0 155 -9 0 -18 -6 -20 -12z"/>
<path d="M6336 4839 c-37 -29 -56 -71 -56 -123 0 -83 33 -119 107 -119 57 0
83 11 83 35 0 16 -4 19 -22 13 -54 -16 -69 -16 -92 -2 -30 20 -41 66 -26 111
20 63 59 80 138 61 25 -6 32 -4 32 7 0 39 -120 52 -164 17z"/>
<path d="M6683 4848 c-13 -6 -23 -18 -23 -26 0 -11 7 -13 33 -7 79 20 117 7
117 -41 0 -19 -7 -22 -72 -26 -63 -5 -75 -9 -96 -33 -27 -31 -24 -67 8 -99 24
-25 93 -25 120 -1 19 17 20 17 20 1 0 -11 6 -16 17 -14 13 2 21 20 30 68 28
152 12 191 -79 189 -29 0 -63 -5 -75 -11z m113 -155 c-9 -36 -41 -63 -75 -63
-33 0 -51 17 -51 47 0 28 27 41 89 42 42 1 43 0 37 -26z"/>
<path d="M7055 4835 c-29 -29 -33 -75 -7 -98 9 -8 38 -21 64 -27 33 -9 49 -19
54 -33 13 -42 -49 -57 -133 -31 -17 5 -23 2 -23 -9 0 -28 54 -44 131 -39 52 4
87 68 60 110 -5 8 -32 22 -62 31 -68 23 -83 45 -49 73 24 20 46 20 108 2 16
-5 22 -2 22 9 0 24 -32 37 -90 37 -41 0 -56 -5 -75 -25z"/>
</g>
</svg>
